<svg width="20" height="20" viewBox="0 0 20 20" fill="none" xmlns="http://www.w3.org/2000/svg">
<path d="M10 1.6665C12.2642 1.6665 12.5467 1.67484 13.435 1.7165C14.3225 1.75817 14.9267 1.89734 15.4584 2.104C16.0084 2.31567 16.4717 2.60234 16.935 3.06484C17.3588 3.48142 17.6866 3.98533 17.8959 4.5415C18.1017 5.07234 18.2417 5.67734 18.2834 6.56484C18.3225 7.45317 18.3334 7.73567 18.3334 9.99984C18.3334 12.264 18.325 12.5465 18.2834 13.4348C18.2417 14.3223 18.1017 14.9265 17.8959 15.4582C17.6873 16.0147 17.3593 16.5187 16.935 16.9348C16.5183 17.3584 16.0144 17.6863 15.4584 17.8957C14.9275 18.1015 14.3225 18.2415 13.435 18.2832C12.5467 18.3223 12.2642 18.3332 10 18.3332C7.73585 18.3332 7.45335 18.3248 6.56502 18.2832C5.67752 18.2415 5.07335 18.1015 4.54169 17.8957C3.98529 17.6869 3.48129 17.359 3.06502 16.9348C2.64119 16.5183 2.3133 16.0144 2.10419 15.4582C1.89752 14.9273 1.75835 14.3223 1.71669 13.4348C1.67752 12.5465 1.66669 12.264 1.66669 9.99984C1.66669 7.73567 1.67502 7.45317 1.71669 6.56484C1.75835 5.6765 1.89752 5.07317 2.10419 4.5415C2.31272 3.98499 2.64069 3.48094 3.06502 3.06484C3.48141 2.64086 3.98538 2.31295 4.54169 2.104C5.07335 1.89734 5.67669 1.75817 6.56502 1.7165C7.45335 1.67734 7.73585 1.6665 10 1.6665ZM10 5.83317C8.89495 5.83317 7.83514 6.27216 7.05374 7.05356C6.27234 7.83496 5.83335 8.89477 5.83335 9.99984C5.83335 11.1049 6.27234 12.1647 7.05374 12.9461C7.83514 13.7275 8.89495 14.1665 10 14.1665C11.1051 14.1665 12.1649 13.7275 12.9463 12.9461C13.7277 12.1647 14.1667 11.1049 14.1667 9.99984C14.1667 8.89477 13.7277 7.83496 12.9463 7.05356C12.1649 6.27216 11.1051 5.83317 10 5.83317ZM15.4167 5.62484C15.4167 5.34857 15.3069 5.08362 15.1116 4.88827C14.9162 4.69292 14.6513 4.58317 14.375 4.58317C14.0988 4.58317 13.8338 4.69292 13.6385 4.88827C13.4431 5.08362 13.3334 5.34857 13.3334 5.62484C13.3334 5.9011 13.4431 6.16606 13.6385 6.36141C13.8338 6.55676 14.0988 6.6665 14.375 6.6665C14.6513 6.6665 14.9162 6.55676 15.1116 6.36141C15.3069 6.16606 15.4167 5.9011 15.4167 5.62484ZM10 7.49984C10.6631 7.49984 11.2989 7.76323 11.7678 8.23207C12.2366 8.70091 12.5 9.3368 12.5 9.99984C12.5 10.6629 12.2366 11.2988 11.7678 11.7676C11.2989 12.2364 10.6631 12.4998 10 12.4998C9.33698 12.4998 8.70109 12.2364 8.23225 11.7676C7.76341 11.2988 7.50002 10.6629 7.50002 9.99984C7.50002 9.3368 7.76341 8.70091 8.23225 8.23207C8.70109 7.76323 9.33698 7.49984 10 7.49984Z" fill="#939393"/>
</svg>
