<svg width="20" height="20" viewBox="0 0 20 20" fill="none" xmlns="http://www.w3.org/2000/svg">
<path d="M16 9.03369V6.66702C14.8917 6.66702 14.0458 6.37119 13.5 5.79619C12.9398 5.13996 12.6259 4.30892 12.6125 3.44619V3.27536L10.375 3.22119C10.375 3.22119 10.375 3.31702 10.375 3.44619V12.8337C10.2982 13.2531 10.0947 13.6388 9.79173 13.9389C9.48879 14.2389 9.1011 14.4388 8.68098 14.5115C8.26086 14.5842 7.82854 14.5262 7.4424 14.3455C7.05625 14.1647 6.73487 13.8698 6.52163 13.5006C6.3084 13.1314 6.21358 12.7056 6.24997 12.2808C6.28637 11.856 6.45223 11.4526 6.72517 11.125C6.9981 10.7975 7.36497 10.5615 7.77624 10.4491C8.1875 10.3366 8.62337 10.3531 9.025 10.4962V8.20452C8.79083 8.16615 8.55396 8.14665 8.31667 8.14619C7.46291 8.14619 6.62833 8.39936 5.91846 8.87368C5.20858 9.348 4.65531 10.0222 4.32859 10.8109C4.00187 11.5997 3.91639 12.4676 4.08295 13.305C4.24951 14.1423 4.66063 14.9115 5.26432 15.5152C5.86802 16.1189 6.63718 16.53 7.47453 16.6966C8.31188 16.8631 9.17982 16.7777 9.96859 16.4509C10.7574 16.1242 11.4315 15.5709 11.9058 14.8611C12.3802 14.1512 12.6333 13.3166 12.6333 12.4629C12.6329 12.286 12.6217 12.1092 12.6 11.9337V8.12119C13.6174 8.75658 14.8012 9.07428 16 9.03369Z" fill="#939393"/>
</svg>
