<svg width="20" height="20" viewBox="0 0 20 20" fill="none" xmlns="http://www.w3.org/2000/svg">
<path d="M12.35 3.5498C12.1845 3.84621 12.037 4.15232 11.9083 4.46647C10.644 4.26651 9.35602 4.26651 8.09166 4.46647C7.96298 4.15232 7.81549 3.84621 7.64999 3.5498C6.45898 3.75331 5.30116 4.11775 4.20833 4.63314C2.25411 7.45338 1.36786 10.8773 1.70833 14.2915C2.98186 15.2489 4.41121 15.979 5.93332 16.4498C6.27992 15.992 6.58924 15.5071 6.85832 14.9998C6.36172 14.8167 5.88441 14.585 5.43332 14.3081C5.55704 14.2258 5.67407 14.1339 5.78332 14.0331C7.09871 14.6667 8.53996 14.9958 9.99999 14.9958C11.46 14.9958 12.9013 14.6667 14.2167 14.0331C14.3333 14.1331 14.45 14.2248 14.5667 14.3081C14.1131 14.5828 13.6363 14.8171 13.1417 15.0081C13.3996 15.5269 13.7006 16.0231 14.0417 16.4915C15.5619 16.0223 16.9888 15.292 18.2583 14.3331C18.607 10.9183 17.72 7.49162 15.7583 4.6748C14.6778 4.14875 13.5314 3.77036 12.35 3.5498ZM7.23333 12.3415C6.81631 12.3115 6.42711 12.1212 6.14743 11.8104C5.86774 11.4997 5.71932 11.0927 5.73333 10.6748C5.71721 10.2564 5.8649 9.84821 6.145 9.53698C6.42511 9.22575 6.81554 9.03603 7.23333 9.00814C7.65111 9.03603 8.04154 9.22575 8.32165 9.53698C8.60175 9.84821 8.74944 10.2564 8.73332 10.6748C8.74944 11.0932 8.60175 11.5014 8.32165 11.8126C8.04154 12.1239 7.65111 12.3136 7.23333 12.3415ZM12.7667 12.3415C12.3496 12.3115 11.9604 12.1212 11.6808 11.8104C11.4011 11.4997 11.2527 11.0927 11.2667 10.6748C11.2505 10.2564 11.3982 9.84821 11.6783 9.53698C11.9584 9.22575 12.3489 9.03603 12.7667 9.00814C13.1852 9.03395 13.5769 9.22306 13.8574 9.53476C14.138 9.84646 14.2849 10.2558 14.2667 10.6748C14.2849 11.0938 14.138 11.5031 13.8574 11.8148C13.5769 12.1266 13.1852 12.3157 12.7667 12.3415Z" fill="#939393"/>
</svg>
