<svg width="148" height="44" viewBox="0 0 148 44" fill="none" xmlns="http://www.w3.org/2000/svg">
<rect width="148" height="44" rx="22" fill="#393939"/>
<path d="M47.0046 19.0898C46.9549 18.6246 46.7454 18.2624 46.3761 18.0032C46.0103 17.744 45.5344 17.6143 44.9485 17.6143C44.5366 17.6143 44.1832 17.6765 43.8885 17.8008C43.5938 17.9251 43.3683 18.0937 43.212 18.3068C43.0558 18.5199 42.9759 18.7631 42.9723 19.0366C42.9723 19.2638 43.0238 19.4609 43.1268 19.6278C43.2333 19.7947 43.3771 19.9368 43.5582 20.054C43.7393 20.1676 43.94 20.2635 44.1602 20.3416C44.3803 20.4197 44.6023 20.4854 44.826 20.5387L45.8487 20.7944C46.2607 20.8903 46.6566 21.0199 47.0366 21.1832C47.4201 21.3466 47.7628 21.5526 48.0646 21.8011C48.37 22.0497 48.6115 22.3498 48.7891 22.7013C48.9666 23.0529 49.0554 23.4648 49.0554 23.9371C49.0554 24.5763 48.892 25.1392 48.5653 25.6257C48.2386 26.1087 47.7663 26.4869 47.1484 26.7603C46.5341 27.0302 45.7901 27.1651 44.9165 27.1651C44.0678 27.1651 43.331 27.0337 42.706 26.771C42.0845 26.5082 41.598 26.1246 41.2464 25.6204C40.8984 25.1161 40.7102 24.5018 40.6818 23.7773H42.6261C42.6545 24.1573 42.7717 24.4734 42.9776 24.7255C43.1836 24.9776 43.4517 25.1658 43.782 25.2901C44.1158 25.4144 44.4886 25.4766 44.9006 25.4766C45.3303 25.4766 45.7067 25.4126 46.0298 25.2848C46.3565 25.1534 46.6122 24.9723 46.7969 24.7415C46.9815 24.5071 47.0756 24.2337 47.0792 23.9212C47.0756 23.6371 46.9922 23.4027 46.8288 23.218C46.6655 23.0298 46.4364 22.8736 46.1417 22.7493C45.8505 22.6214 45.5096 22.5078 45.119 22.4084L43.8778 22.0888C42.9794 21.858 42.2692 21.5082 41.7472 21.0394C41.2287 20.5671 40.9695 19.9403 40.9695 19.1591C40.9695 18.5163 41.1435 17.9535 41.4915 17.4705C41.843 16.9876 42.3207 16.6129 42.9244 16.3466C43.5281 16.0767 44.2116 15.9418 44.9751 15.9418C45.7493 15.9418 46.4276 16.0767 47.0099 16.3466C47.5959 16.6129 48.0558 16.984 48.3896 17.4599C48.7234 17.9322 48.8956 18.4755 48.9062 19.0898H47.0046ZM52.2102 22.206V27H50.282V16.0909H52.1676V20.2085H52.2635C52.4553 19.7468 52.7518 19.3828 53.1531 19.1165C53.5579 18.8466 54.0728 18.7116 54.6978 18.7116C55.266 18.7116 55.7614 18.8306 56.184 19.0685C56.6066 19.3065 56.9333 19.6545 57.1641 20.1126C57.3985 20.5707 57.5156 21.13 57.5156 21.7905V27H55.5874V22.0888C55.5874 21.5384 55.4453 21.1104 55.1612 20.805C54.8807 20.4961 54.4865 20.3416 53.9787 20.3416C53.6378 20.3416 53.3324 20.4162 53.0625 20.5653C52.7962 20.7109 52.5867 20.9222 52.434 21.1992C52.2848 21.4762 52.2102 21.8118 52.2102 22.206ZM62.6001 27.1598C61.8011 27.1598 61.1086 26.984 60.5227 26.6325C59.9367 26.2809 59.4822 25.7891 59.159 25.157C58.8394 24.5249 58.6796 23.7862 58.6796 22.9411C58.6796 22.0959 58.8394 21.3555 59.159 20.7198C59.4822 20.0842 59.9367 19.5906 60.5227 19.239C61.1086 18.8874 61.8011 18.7116 62.6001 18.7116C63.3991 18.7116 64.0916 18.8874 64.6775 19.239C65.2634 19.5906 65.7162 20.0842 66.0358 20.7198C66.359 21.3555 66.5205 22.0959 66.5205 22.9411C66.5205 23.7862 66.359 24.5249 66.0358 25.157C65.7162 25.7891 65.2634 26.2809 64.6775 26.6325C64.0916 26.984 63.3991 27.1598 62.6001 27.1598ZM62.6107 25.6151C63.044 25.6151 63.4062 25.4961 63.6974 25.2582C63.9886 25.0167 64.2052 24.6935 64.3472 24.2887C64.4928 23.8839 64.5656 23.4329 64.5656 22.9357C64.5656 22.435 64.4928 21.9822 64.3472 21.5774C64.2052 21.169 63.9886 20.8441 63.6974 20.6026C63.4062 20.3612 63.044 20.2404 62.6107 20.2404C62.1669 20.2404 61.7975 20.3612 61.5028 20.6026C61.2116 20.8441 60.9932 21.169 60.8476 21.5774C60.7056 21.9822 60.6345 22.435 60.6345 22.9357C60.6345 23.4329 60.7056 23.8839 60.8476 24.2887C60.9932 24.6935 61.2116 25.0167 61.5028 25.2582C61.7975 25.4961 62.1669 25.6151 62.6107 25.6151ZM67.7072 30.0682V18.8182H69.6035V20.1712H69.7153C69.8148 19.9723 69.955 19.761 70.1362 19.5373C70.3173 19.31 70.5623 19.1165 70.8712 18.9567C71.1802 18.7933 71.5744 18.7116 72.0538 18.7116C72.6859 18.7116 73.2558 18.8732 73.7636 19.1964C74.275 19.516 74.6798 19.9901 74.9781 20.6186C75.28 21.2436 75.4309 22.0107 75.4309 22.9197C75.4309 23.8182 75.2835 24.5817 74.9888 25.2102C74.694 25.8388 74.2928 26.3182 73.7849 26.6484C73.2771 26.9787 72.7018 27.1438 72.0591 27.1438C71.5903 27.1438 71.2015 27.0657 70.8925 26.9094C70.5836 26.7532 70.335 26.565 70.1468 26.3448C69.9621 26.1211 69.8183 25.9098 69.7153 25.7109H69.6354V30.0682H67.7072ZM69.5982 22.9091C69.5982 23.4382 69.6727 23.9016 69.8219 24.2994C69.9746 24.6971 70.193 25.0078 70.4771 25.2315C70.7647 25.4517 71.1127 25.5618 71.5211 25.5618C71.9472 25.5618 72.3041 25.4482 72.5918 25.2209C72.8794 24.9901 73.096 24.6758 73.2416 24.2781C73.3908 23.8768 73.4653 23.4205 73.4653 22.9091C73.4653 22.4013 73.3925 21.9503 73.2469 21.5561C73.1013 21.1619 72.8847 20.853 72.5971 20.6293C72.3094 20.4055 71.9508 20.2937 71.5211 20.2937C71.1092 20.2937 70.7594 20.402 70.4717 20.6186C70.1841 20.8352 69.9657 21.1388 69.8165 21.5295C69.671 21.9201 69.5982 22.38 69.5982 22.9091ZM81.8311 22.206V27H79.9029V18.8182H81.7459V20.2085H81.8418C82.03 19.7504 82.3301 19.3864 82.742 19.1165C83.1575 18.8466 83.6706 18.7116 84.2814 18.7116C84.8461 18.7116 85.3379 18.8324 85.7569 19.0739C86.1795 19.3153 86.5062 19.6651 86.737 20.1232C86.9714 20.5813 87.0868 21.1371 87.0833 21.7905V27H85.155V22.0888C85.155 21.5419 85.013 21.114 84.7289 20.805C84.4483 20.4961 84.0595 20.3416 83.5623 20.3416C83.225 20.3416 82.9249 20.4162 82.6621 20.5653C82.4029 20.7109 82.1987 20.9222 82.0495 21.1992C81.9039 21.4762 81.8311 21.8118 81.8311 22.206ZM92.1624 27.1598C91.3634 27.1598 90.6709 26.984 90.085 26.6325C89.499 26.2809 89.0445 25.7891 88.7213 25.157C88.4017 24.5249 88.2419 23.7862 88.2419 22.9411C88.2419 22.0959 88.4017 21.3555 88.7213 20.7198C89.0445 20.0842 89.499 19.5906 90.085 19.239C90.6709 18.8874 91.3634 18.7116 92.1624 18.7116C92.9614 18.7116 93.6539 18.8874 94.2398 19.239C94.8257 19.5906 95.2785 20.0842 95.5981 20.7198C95.9213 21.3555 96.0828 22.0959 96.0828 22.9411C96.0828 23.7862 95.9213 24.5249 95.5981 25.157C95.2785 25.7891 94.8257 26.2809 94.2398 26.6325C93.6539 26.984 92.9614 27.1598 92.1624 27.1598ZM92.173 25.6151C92.6063 25.6151 92.9685 25.4961 93.2597 25.2582C93.5509 25.0167 93.7675 24.6935 93.9096 24.2887C94.0551 23.8839 94.1279 23.4329 94.1279 22.9357C94.1279 22.435 94.0551 21.9822 93.9096 21.5774C93.7675 21.169 93.5509 20.8441 93.2597 20.6026C92.9685 20.3612 92.6063 20.2404 92.173 20.2404C91.7292 20.2404 91.3598 20.3612 91.0651 20.6026C90.7739 20.8441 90.5555 21.169 90.4099 21.5774C90.2679 21.9822 90.1968 22.435 90.1968 22.9357C90.1968 23.4329 90.2679 23.8839 90.4099 24.2887C90.5555 24.6935 90.7739 25.0167 91.0651 25.2582C91.3598 25.4961 91.7292 25.6151 92.173 25.6151ZM98.7237 27L96.4119 18.8182H98.3774L99.8156 24.571H99.8902L101.36 18.8182H103.305L104.775 24.5391H104.855L106.272 18.8182H108.242L105.925 27H103.917L102.383 21.4709H102.271L100.737 27H98.7237Z" fill="white"/>
</svg>
