<svg width="18" height="18" viewBox="0 0 18 18" fill="none" xmlns="http://www.w3.org/2000/svg">
<path d="M9.00002 1.91675C10.9246 1.91675 11.1647 1.92383 11.9198 1.95925C12.6741 1.99466 13.1877 2.11296 13.6396 2.28862C14.1071 2.46854 14.5009 2.71221 14.8948 3.10533C15.255 3.45942 15.5337 3.88775 15.7115 4.3605C15.8864 4.81171 16.0054 5.32596 16.0409 6.08033C16.0741 6.83541 16.0834 7.07554 16.0834 9.00008C16.0834 10.9246 16.0763 11.1647 16.0409 11.9198C16.0054 12.6742 15.8864 13.1877 15.7115 13.6397C15.5342 14.1127 15.2554 14.5411 14.8948 14.8948C14.5406 15.2549 14.1123 15.5336 13.6396 15.7115C13.1884 15.8865 12.6741 16.0055 11.9198 16.0409C11.1647 16.0742 10.9246 16.0834 9.00002 16.0834C7.07548 16.0834 6.83535 16.0763 6.08027 16.0409C5.3259 16.0055 4.81235 15.8865 4.36044 15.7115C3.8875 15.5341 3.4591 15.2553 3.10527 14.8948C2.74502 14.5408 2.46631 14.1125 2.28856 13.6397C2.1129 13.1885 1.9946 12.6742 1.95919 11.9198C1.9259 11.1647 1.91669 10.9246 1.91669 9.00008C1.91669 7.07554 1.92377 6.83541 1.95919 6.08033C1.9946 5.32525 2.1129 4.81241 2.28856 4.3605C2.46581 3.88746 2.74459 3.45902 3.10527 3.10533C3.4592 2.74495 3.88757 2.46622 4.36044 2.28862C4.81235 2.11296 5.32519 1.99466 6.08027 1.95925C6.83535 1.92596 7.07548 1.91675 9.00002 1.91675ZM9.00002 5.45842C8.06071 5.45842 7.15988 5.83155 6.49568 6.49575C5.83149 7.15994 5.45835 8.06077 5.45835 9.00008C5.45835 9.93939 5.83149 10.8402 6.49568 11.5044C7.15988 12.1686 8.06071 12.5417 9.00002 12.5417C9.93933 12.5417 10.8402 12.1686 11.5044 11.5044C12.1685 10.8402 12.5417 9.93939 12.5417 9.00008C12.5417 8.06077 12.1685 7.15994 11.5044 6.49575C10.8402 5.83155 9.93933 5.45842 9.00002 5.45842ZM13.6042 5.28133C13.6042 5.0465 13.5109 4.8213 13.3449 4.65525C13.1788 4.4892 12.9536 4.39591 12.7188 4.39591C12.4839 4.39591 12.2587 4.4892 12.0927 4.65525C11.9266 4.8213 11.8334 5.0465 11.8334 5.28133C11.8334 5.51616 11.9266 5.74137 12.0927 5.90742C12.2587 6.07346 12.4839 6.16675 12.7188 6.16675C12.9536 6.16675 13.1788 6.07346 13.3449 5.90742C13.5109 5.74137 13.6042 5.51616 13.6042 5.28133ZM9.00002 6.87508C9.56361 6.87508 10.1041 7.09896 10.5026 7.49748C10.9011 7.89599 11.125 8.4365 11.125 9.00008C11.125 9.56367 10.9011 10.1042 10.5026 10.5027C10.1041 10.9012 9.56361 11.1251 9.00002 11.1251C8.43644 11.1251 7.89593 10.9012 7.49742 10.5027C7.0989 10.1042 6.87502 9.56367 6.87502 9.00008C6.87502 8.4365 7.0989 7.89599 7.49742 7.49748C7.89593 7.09896 8.43644 6.87508 9.00002 6.87508Z" fill="white"/>
</svg>
