<svg width="69" height="34" viewBox="0 0 69 34" fill="none" xmlns="http://www.w3.org/2000/svg">
<path d="M19.25 24.5C18.8375 24.5 18.4845 24.3533 18.191 24.0597C17.897 23.7657 17.75 23.4125 17.75 23C17.75 22.5875 17.897 22.2343 18.191 21.9403C18.4845 21.6467 18.8375 21.5 19.25 21.5C19.6625 21.5 20.0155 21.6467 20.309 21.9403C20.603 22.2343 20.75 22.5875 20.75 23C20.75 23.4125 20.603 23.7657 20.309 24.0597C20.0155 24.3533 19.6625 24.5 19.25 24.5ZM26.75 24.5C26.3375 24.5 25.9845 24.3533 25.691 24.0597C25.397 23.7657 25.25 23.4125 25.25 23C25.25 22.5875 25.397 22.2343 25.691 21.9403C25.9845 21.6467 26.3375 21.5 26.75 21.5C27.1625 21.5 27.5157 21.6467 27.8097 21.9403C28.1033 22.2343 28.25 22.5875 28.25 23C28.25 23.4125 28.1033 23.7657 27.8097 24.0597C27.5157 24.3533 27.1625 24.5 26.75 24.5ZM18.6125 12.5L20.4125 16.25H25.6625L27.725 12.5H18.6125ZM19.25 20.75C18.6875 20.75 18.2625 20.503 17.975 20.009C17.6875 19.5155 17.675 19.025 17.9375 18.5375L18.95 16.7L16.25 11H15.4813C15.2688 11 15.0938 10.928 14.9562 10.784C14.8187 10.6405 14.75 10.4625 14.75 10.25C14.75 10.0375 14.822 9.85925 14.966 9.71525C15.1095 9.57175 15.2875 9.5 15.5 9.5H16.7188C16.8563 9.5 16.9875 9.5375 17.1125 9.6125C17.2375 9.6875 17.3312 9.79375 17.3938 9.93125L17.9 11H28.9625C29.3 11 29.5312 11.125 29.6562 11.375C29.7812 11.625 29.775 11.8875 29.6375 12.1625L26.975 16.9625C26.8375 17.2125 26.6563 17.4063 26.4313 17.5438C26.2063 17.6813 25.95 17.75 25.6625 17.75H20.075L19.25 19.25H27.5187C27.7312 19.25 27.9062 19.3217 28.0438 19.4653C28.1813 19.6093 28.25 19.7875 28.25 20C28.25 20.2125 28.178 20.3905 28.034 20.534C27.8905 20.678 27.7125 20.75 27.5 20.75H19.25ZM20.4125 16.25H25.6625H20.4125Z" fill="#181818"/>
<rect x="39" y="8" width="16" height="16" rx="8" fill="#181818"/>
<path d="M47.6044 12.7273V20H46.2869V14.0092H46.2443L44.5433 15.0959V13.8885L46.3509 12.7273H47.6044Z" fill="white"/>
<rect x="0.5" y="0.5" width="68" height="33" rx="1.5" stroke="black"/>
</svg>
